<?xml version="1.0" encoding="UTF-8"?>
<svg version="1.1" xmlns="http://www.w3.org/2000/svg" width="1254" height="1254">
<path d="M0 0 C413.82 0 827.64 0 1254 0 C1254 413.82 1254 827.64 1254 1254 C840.18 1254 426.36 1254 0 1254 C0 840.18 0 426.36 0 0 Z " fill="#B8EAFA" transform="translate(0,0)"/>
<path d="M0 0 C31.68 0 63.36 0 96 0 C102.14858691 11.68231513 108.24966631 23.35526182 114.1328125 35.16796875 C114.86146421 36.62714947 115.59029984 38.08623836 116.31930542 39.54524231 C118.20848025 43.32734322 120.09525448 47.11063631 121.98144531 50.89422607 C123.88590767 54.71341715 125.79265004 58.53146949 127.69921875 62.34960938 C130.18544602 67.32903277 132.67103673 72.30877194 135.15496635 77.28934193 C136.11927513 79.22263208 137.08406245 81.15568288 138.04888916 83.0887146 C139.41212981 85.82027056 140.77275136 88.55311597 142.13226318 91.28652954 C142.83798817 92.70315757 143.54373699 94.11977371 144.24951172 95.53637695 C144.56826326 96.17845942 144.88701481 96.8205419 145.21542549 97.48208141 C147.3514208 101.76537829 149.58622569 105.98375429 151.875 110.1875 C155.60614976 117.0818008 158.95019334 124.13889994 162.28417969 131.23217773 C164.7650521 136.48424756 167.34400201 141.65081395 170.125 146.75 C173.26309303 152.50604714 176.12818664 158.35373684 178.85986328 164.31347656 C180.88699935 168.71468586 183.01531252 173.05855354 185.1862793 177.390625 C185.52596835 178.06892837 185.86565741 178.74723173 186.21564007 179.44608974 C187.01334996 181.03895311 187.81127824 182.63170711 188.60937119 184.22437859 C191.07959691 189.15481822 193.54745962 194.08644102 196.01578963 199.0178299 C196.99316745 200.97042749 197.97062209 202.92298661 198.94810009 204.87553406 C204.862186 216.68920376 210.77413751 228.50394093 216.68541431 240.31901646 C220.64147929 248.22600135 224.59829927 256.13260673 228.55688477 264.03833008 C232.0381771 270.99085384 235.51799582 277.94411297 238.99614829 284.89820808 C240.82578417 288.55619517 242.65608088 292.21384764 244.48816872 295.87060738 C251.18584203 309.24003515 257.87076084 322.61453647 264.35424805 336.08959961 C264.80215352 337.015887 265.25005899 337.9421744 265.71153736 338.89653111 C267.76797475 343.20199322 269.63286256 347.41372378 271 352 C271.66 352 272.32 352 273 352 C273.37125 350.783125 273.7425 349.56625 274.125 348.3125 C275.78842106 343.32993783 277.95375958 338.6709592 280.1953125 333.92578125 C282.42250813 329.15052283 284.44754429 324.28969382 286.5 319.4375 C289.31170238 312.80314606 292.27078466 306.32508187 295.58349609 299.92285156 C296.95955869 297.08344768 298.08784835 294.25204285 299.1796875 291.29296875 C302.45439669 282.67256403 306.169267 274.25452556 309.875 265.8125 C310.62357773 264.10124541 311.37194679 262.38989952 312.12011719 260.6784668 C315.82225301 252.21625141 319.54248837 243.7620475 323.2734375 235.3125 C323.61184662 234.5460466 323.95025574 233.7795932 324.29891968 232.98991394 C325.8931115 229.38053659 327.48931744 225.77207285 329.08935547 222.1652832 C329.6691968 220.85639393 330.24879409 219.54739652 330.828125 218.23828125 C331.23788071 217.31249016 331.23788071 217.31249016 331.65591431 216.36799622 C333.87088565 211.34106762 335.97872311 206.27357573 338.04589844 201.18432617 C339 199 339 199 340 198 C342.55589888 197.90493948 345.08467972 197.87443239 347.64086914 197.88647461 C348.84077736 197.88625557 348.84077736 197.88625557 350.06492615 197.8860321 C352.72169665 197.88673145 355.37839793 197.89452482 358.03515625 197.90234375 C359.87218691 197.90420785 361.70921806 197.90563179 363.54624939 197.90663147 C368.39109662 197.91045725 373.23591408 197.92028804 378.08074951 197.93133545 C383.02062578 197.94154828 387.96050685 197.94612881 392.90039062 197.95117188 C402.60027353 197.96191026 412.30013429 197.9789874 422 198 C422.80492467 199.75226752 423.60784091 201.50545772 424.40991211 203.2590332 C424.85725204 204.23524124 425.30459198 205.21144928 425.76548767 206.21723938 C427.69768634 210.57268098 429.17235643 215.0278691 430.69140625 219.54296875 C431.86961715 222.65555575 433.26803758 225.53238893 434.78442383 228.48950195 C437.30530902 233.69582097 439.46749896 239.0701425 441.69116211 244.40869141 C442.56103883 246.49649303 443.43545026 248.58235042 444.31054688 250.66796875 C446.9908493 257.07060276 449.62747122 263.47554586 452 270 C454.42000195 276.49379835 456.82906107 282.86196776 460.046875 289.00390625 C461.14816581 291.31029807 461.97562795 293.6476277 462.8125 296.0625 C464.68493666 301.39117349 467.00446547 306.42081571 469.4284668 311.51293945 C471.47316805 315.82292985 473.31654297 320.16321348 475.0390625 324.609375 C476.11268043 327.28032692 477.29510468 329.88574227 478.5 332.5 C480.02013351 335.80663481 481.4781729 339.11421846 482.8125 342.5 C486.08117658 350.71838682 489.56780906 358.84854652 493 367 C493.33 282.52 493.66 198.04 494 111 C520.07 111 546.14 111 573 111 C573 226.83 573 342.66 573 462 C532.08 462 491.16 462 449 462 C446.03 455.07 443.06 448.14 440 441 C438.68 438.36 437.36 435.72 436 433 C435.27201425 431.03760362 434.54449803 429.07496228 433.8359375 427.10546875 C432.91957832 424.79744259 431.8313739 422.64146087 430.6875 420.4375 C428.70226791 416.54878067 427.02036426 412.63139224 425.4375 408.5625 C419.83303071 394.20432984 413.25627181 380.22931907 406.9296875 366.1796875 C405.89053165 363.86983366 404.85147027 361.55993732 403.8125 359.25 C403.29123535 358.09322754 402.7699707 356.93645508 402.23291016 355.74462891 C398.91645289 348.36641924 395.67343739 340.95869547 392.46875 333.53125 C392.08248947 332.63774841 391.69622894 331.74424683 391.29826355 330.82366943 C389.37732676 326.37968311 387.46304284 321.93304479 385.55981445 317.48144531 C384.85917117 315.85729913 384.1582567 314.23326991 383.45703125 312.609375 C382.97665405 311.47562439 382.97665405 311.47562439 382.48657227 310.31896973 C381.04664796 306.47199107 381.04664796 306.47199107 378 304 C377.61199219 305.24265625 377.22398437 306.4853125 376.82421875 307.765625 C374.87343784 313.60547 372.35488007 319.14807411 369.8125 324.75 C368.73011829 327.16073639 367.64904416 329.57200784 366.5703125 331.984375 C366.14219521 332.94096008 366.14219521 332.94096008 365.70542908 333.91687012 C362.1329947 341.91565075 358.65921966 349.95711817 355.1875 358 C354.68221268 359.17030762 354.68221268 359.17030762 354.16671753 360.36425781 C351.77403744 365.90788221 349.38591473 371.45346089 347 377 C346.67561951 377.754021 346.35123901 378.50804199 346.01702881 379.28491211 C340.04683538 393.16558363 334.09255017 407.05299857 328.1953125 420.96484375 C327.88322845 421.7010495 327.57114441 422.43725525 327.24960327 423.19577026 C325.77439927 426.67692804 324.30071552 430.15871835 322.82958984 433.64160156 C319.96985197 440.40617389 317.08270706 447.15852886 314.15625 453.89453125 C313.85585815 454.59019699 313.55546631 455.28586273 313.24597168 456.00260925 C311.11637632 460.88362368 311.11637632 460.88362368 310 462 C308.35509451 462.09608663 306.70604309 462.12187787 305.05833435 462.12025452 C303.98836212 462.12162918 302.91838989 462.12300385 301.81599426 462.12442017 C300.04007149 462.11902725 300.04007149 462.11902725 298.22827148 462.11352539 C296.989422 462.11367142 295.75057251 462.11381744 294.47418213 462.1139679 C291.06730167 462.11338892 287.66048116 462.10835959 284.25361133 462.10139394 C280.69683174 462.09515993 277.14005142 462.09455656 273.58326721 462.09336853 C266.84363418 462.09025535 260.10401729 462.08204215 253.36439139 462.07201904 C245.69341602 462.06085748 238.02243989 462.05534735 230.35145843 462.05032361 C214.56762959 462.03985952 198.78381687 462.02226035 183 462 C183.01420392 461.45634356 183.02840784 460.91268711 183.04304218 460.35255623 C183.38696777 446.89422342 183.60392595 433.4384711 183.69690418 419.97599983 C183.74542638 413.46383107 183.83086517 406.95721649 184.01147461 400.44726562 C184.93076422 366.10551654 181.88745489 340.72035671 163.57946777 311.2653656 C159.56843238 304.75920068 156.32848211 297.87125167 153 291 C152.0941924 289.19994599 151.18360136 287.40228291 150.26611328 285.6081543 C149.8636438 284.82004868 149.46117432 284.03194305 149.04650879 283.21995544 C148.64186401 282.42936234 148.23721924 281.63876923 147.8203125 280.82421875 C147.37006714 279.94318985 146.91982178 279.06216095 146.45593262 278.1544342 C145.01306764 275.33172355 143.56910294 272.50957748 142.125 269.6875 C141.10464612 267.69238733 140.08430121 265.69727007 139.06396484 263.70214844 C131.13891723 248.20978919 123.19184213 232.72883003 115.22317505 217.25886536 C113.01385999 212.96974288 110.80649787 208.6796223 108.60061646 204.38873291 C98.98186572 185.66503435 98.98186572 185.66503435 89.25 167 C88.69505859 165.94329102 88.69505859 165.94329102 88.12890625 164.86523438 C85.81777397 160.48782956 83.41302126 156.1735782 80.94433594 151.8828125 C80 150 80 150 80 148 C79.34 148 78.68 148 78 148 C78 261.85 78 375.7 78 493 C251.25 493 424.5 493 603 493 C603 356.05 603 219.1 603 78 C518.52 78 434.04 78 347 78 C347 52.59 347 27.18 347 1 C490.88 1 634.76 1 783 1 C783 26.41 783 51.82 783 78 C749.67 78 716.34 78 682 78 C682 242.34 682 406.68 682 576 C456.94 576 231.88 576 0 576 C0 385.92 0 195.84 0 0 Z " fill="#051755" transform="translate(257,295)"/>
<path d="M0 0 C31.68 0 63.36 0 96 0 C96 0.33 96 0.66 96 1 C64.65 1 33.3 1 1 1 C1 190.42 1 379.84 1 575 C199.66 575 398.32 575 603 575 C603 410.99 603 246.98 603 78 C518.52 78 434.04 78 347 78 C347 52.59 347 27.18 347 1 C490.88 1 634.76 1 783 1 C783 26.41 783 51.82 783 78 C749.67 78 716.34 78 682 78 C682 242.34 682 406.68 682 576 C456.94 576 231.88 576 0 576 C0 385.92 0 195.84 0 0 Z " fill="#05A8D6" transform="translate(257,295)"/>
<path d="M0 0 C26.07 0 52.14 0 79 0 C79 115.83 79 231.66 79 351 C38.08 351 -2.84 351 -45 351 C-49.455 340.605 -49.455 340.605 -54 330 C-55.32 327.36 -56.64 324.72 -58 322 C-58.72798575 320.03760362 -59.45550197 318.07496228 -60.1640625 316.10546875 C-61.08042168 313.79744259 -62.1686261 311.64146087 -63.3125 309.4375 C-65.29773209 305.54878067 -66.97963574 301.63139224 -68.5625 297.5625 C-74.16696929 283.20432984 -80.74372819 269.22931907 -87.0703125 255.1796875 C-88.10946835 252.86983366 -89.14852973 250.55993732 -90.1875 248.25 C-90.96939697 246.51484131 -90.96939697 246.51484131 -91.76708984 244.74462891 C-95.08354711 237.36641924 -98.32656261 229.95869547 -101.53125 222.53125 C-101.91751053 221.63774841 -102.30377106 220.74424683 -102.70173645 219.82366943 C-104.62267324 215.37968311 -106.53695716 210.93304479 -108.44018555 206.48144531 C-109.14082883 204.85729913 -109.8417433 203.23326991 -110.54296875 201.609375 C-111.02334595 200.47562439 -111.02334595 200.47562439 -111.51342773 199.31896973 C-112.95335204 195.47199107 -112.95335204 195.47199107 -116 193 C-116.58201172 194.86398437 -116.58201172 194.86398437 -117.17578125 196.765625 C-119.12656216 202.60547 -121.64511993 208.14807411 -124.1875 213.75 C-125.26988171 216.16073639 -126.35095584 218.57200784 -127.4296875 220.984375 C-127.85780479 221.94096008 -127.85780479 221.94096008 -128.29457092 222.91687012 C-131.8670053 230.91565075 -135.34078034 238.95711817 -138.8125 247 C-139.31778732 248.17030762 -139.31778732 248.17030762 -139.83328247 249.36425781 C-142.22596256 254.90788221 -144.61408527 260.45346089 -147 266 C-147.32438049 266.754021 -147.64876099 267.50804199 -147.98297119 268.28491211 C-153.95316462 282.16558363 -159.90744983 296.05299857 -165.8046875 309.96484375 C-166.27281357 311.06915237 -166.27281357 311.06915237 -166.75039673 312.19577026 C-168.22560073 315.67692804 -169.69928448 319.15871835 -171.17041016 322.64160156 C-174.03014803 329.40617389 -176.91729294 336.15852886 -179.84375 342.89453125 C-180.14414185 343.59019699 -180.44453369 344.28586273 -180.75402832 345.00260925 C-182.88362368 349.88362368 -182.88362368 349.88362368 -184 351 C-186.67787973 351.09512944 -189.32988869 351.12555279 -192.00805664 351.11352539 C-192.84700974 351.11367142 -193.68596283 351.11381744 -194.55033875 351.1139679 C-197.33697044 351.1132685 -200.12353616 351.10547485 -202.91015625 351.09765625 C-204.83686791 351.09579217 -206.76358005 351.09436822 -208.69029236 351.09336853 C-213.77187397 351.08954259 -218.8534272 351.07971166 -223.93499756 351.06866455 C-229.11616634 351.05845206 -234.29733969 351.05387126 -239.47851562 351.04882812 C-249.65235625 351.03808946 -259.82617577 351.02101213 -270 351 C-269.65578506 350.17453674 -269.31157013 349.34907349 -268.95692444 348.49859619 C-268.50586838 347.41656921 -268.05481232 346.33454224 -267.59008789 345.21972656 C-267.14274796 344.14676331 -266.69540802 343.07380005 -266.23451233 341.96832275 C-265.33664604 339.80944846 -264.44557511 337.64774417 -263.55859375 335.484375 C-261.8310537 331.27086269 -260.10829224 327.10127671 -258 323.0625 C-256.40281806 319.96759434 -255.16041165 316.83365603 -253.95703125 313.56640625 C-250.24817922 303.83932729 -245.92929568 294.37846765 -241.6875 284.875 C-236.86540623 274.05635798 -232.05647853 263.23593867 -227.45703125 252.3203125 C-227.12120529 251.5236618 -226.78537933 250.72701111 -226.43937683 249.90621948 C-225.20473702 246.95827167 -224.01106705 244.03320115 -223 241 C-222.34 241 -221.68 241 -221 241 C-220.62875 239.783125 -220.2575 238.56625 -219.875 237.3125 C-218.21157894 232.32993783 -216.04624042 227.6709592 -213.8046875 222.92578125 C-211.57749187 218.15052283 -209.55245571 213.28969382 -207.5 208.4375 C-204.68829762 201.80314606 -201.72921534 195.32508187 -198.41650391 188.92285156 C-197.04044131 186.08344768 -195.91215165 183.25204285 -194.8203125 180.29296875 C-191.54560331 171.67256403 -187.830733 163.25452556 -184.125 154.8125 C-183.37642227 153.10124541 -182.62805321 151.38989952 -181.87988281 149.6784668 C-178.17774699 141.21625141 -174.45751163 132.7620475 -170.7265625 124.3125 C-170.38815338 123.5460466 -170.04974426 122.7795932 -169.70108032 121.98991394 C-168.1068885 118.38053659 -166.51068256 114.77207285 -164.91064453 111.1652832 C-164.3308032 109.85639393 -163.75120591 108.54739652 -163.171875 107.23828125 C-162.89870453 106.62108719 -162.62553406 106.00389313 -162.34408569 105.36799622 C-160.12911435 100.34106762 -158.02127689 95.27357573 -155.95410156 90.18432617 C-155 88 -155 88 -154 87 C-151.44410112 86.90493948 -148.91532028 86.87443239 -146.35913086 86.88647461 C-145.15922264 86.88625557 -145.15922264 86.88625557 -143.93507385 86.8860321 C-141.27830335 86.88673145 -138.62160207 86.89452482 -135.96484375 86.90234375 C-134.12781309 86.90420785 -132.29078194 86.90563179 -130.45375061 86.90663147 C-125.60890338 86.91045725 -120.76408592 86.92028804 -115.91925049 86.93133545 C-110.97937422 86.94154828 -106.03949315 86.94612881 -101.09960938 86.95117188 C-91.39972647 86.96191026 -81.69986571 86.9789874 -72 87 C-71.19507533 88.75226752 -70.39215909 90.50545772 -69.59008789 92.2590332 C-69.14274796 93.23524124 -68.69540802 94.21144928 -68.23451233 95.21723938 C-66.30231366 99.57268098 -64.82764357 104.0278691 -63.30859375 108.54296875 C-62.13038285 111.65555575 -60.73196242 114.53238893 -59.21557617 117.48950195 C-56.69469098 122.69582097 -54.53250104 128.0701425 -52.30883789 133.40869141 C-51.43896117 135.49649303 -50.56454974 137.58235042 -49.68945312 139.66796875 C-47.0091507 146.07060276 -44.37252878 152.47554586 -42 159 C-39.57999805 165.49379835 -37.17093893 171.86196776 -33.953125 178.00390625 C-32.85183419 180.31029807 -32.02437205 182.6476277 -31.1875 185.0625 C-29.31506334 190.39117349 -26.99553453 195.42081571 -24.5715332 200.51293945 C-22.52683195 204.82292985 -20.68345703 209.16321348 -18.9609375 213.609375 C-17.88731957 216.28032692 -16.70489532 218.88574227 -15.5 221.5 C-13.97986649 224.80663481 -12.5218271 228.11421846 -11.1875 231.5 C-7.91882342 239.71838682 -4.43219094 247.84854652 -1 256 C-0.67 171.52 -0.34 87.04 0 0 Z " fill="#039DD1" transform="translate(751,406)"/>
<path d="M0 0 C26.07 0 52.14 0 79 0 C79 115.83 79 231.66 79 351 C65.8 351 52.6 351 39 351 C37.9171875 348.24914062 36.834375 345.49828125 35.71875 342.6640625 C30.5935743 329.78009031 25.04209915 317.08363758 19.5 304.375 C18.49584361 302.0652129 17.49193633 299.75531748 16.48828125 297.4453125 C15.5028306 295.179589 14.51716087 292.91396077 13.53125 290.6484375 C13.09453979 289.64477142 12.65782959 288.64110535 12.20788574 287.60702515 C11.77383423 286.61183868 11.33978271 285.61665222 10.89257812 284.59130859 C10.4732325 283.60226469 10.05388687 282.61322079 9.6218338 281.59420586 C8.48560853 279.07617501 7.32796513 276.73549607 5.99945068 274.32973862 C-1.02025684 261.07986949 -1.09182483 248.82792647 -0.90820312 234.08935547 C-0.90594205 231.52515738 -0.90722193 228.96095413 -0.91174316 226.39675903 C-0.91355321 220.91274955 -0.89116215 215.42972561 -0.84584045 209.94591904 C-0.78036098 202.01784179 -0.75994225 194.09013109 -0.74993652 186.1618128 C-0.73249918 173.29369988 -0.67945667 160.42599649 -0.60351562 147.55810547 C-0.52989625 135.07049586 -0.47336113 122.58299814 -0.43945312 110.09521484 C-0.43735134 109.32332502 -0.43524955 108.55143519 -0.43308407 107.75615476 C-0.42264251 103.88316835 -0.41253315 100.01018116 -0.40258884 96.13719344 C-0.3198786 64.09109917 -0.17252096 32.04576789 0 0 Z " fill="#0A1E6B" transform="translate(751,406)"/>
<path d="M0 0 C26.4 0 52.8 0 80 0 C80 88.11 80 176.22 80 267 C77.3327333 265.66636665 77.03568686 264.33498653 75.78515625 261.64453125 C75.35178955 260.72293213 74.91842285 259.80133301 74.47192383 258.85180664 C74.00681396 257.84883545 73.5417041 256.84586426 73.0625 255.8125 C72.06936051 253.70234662 71.07452504 251.59299073 70.078125 249.484375 C69.31338867 247.86499023 69.31338867 247.86499023 68.53320312 246.21289062 C66.18795987 241.29833629 63.75801405 236.42776777 61.3125 231.5625 C60.85101563 230.64436523 60.38953125 229.72623047 59.9140625 228.78027344 C59.01935157 227.00171593 58.1241872 225.22338643 57.22851562 223.4453125 C56.12987532 221.25851177 55.03892913 219.06819482 53.953125 216.875 C49.60983255 208.10952696 45.11969947 199.42621016 40.56274414 190.76977539 C36.25817213 182.57069504 32.12445493 174.29055965 28 166 C25.0989214 160.17474408 22.19582617 154.35049542 19.29101562 148.52709961 C18.42962358 146.79926576 17.56894754 145.07107477 16.70898438 143.3425293 C15.4329641 140.77814485 14.15420942 138.21513854 12.875 135.65234375 C12.50391113 134.90500473 12.13282227 134.15766571 11.75048828 133.38768005 C11.37649902 132.63962601 11.00250977 131.89157196 10.6171875 131.12084961 C10.22656128 130.31638901 9.83593506 129.51192841 9.43347168 128.68309021 C7.99645816 125.88060902 7.99645816 125.88060902 5.94250488 122.9644928 C-1.84403655 111.08767238 -1.02841194 99.04266518 -0.78125 85.25390625 C-0.76630132 82.78671618 -0.75492675 80.31950212 -0.74694824 77.85227966 C-0.7166219 71.40571794 -0.63822653 64.96063277 -0.54931641 58.51464844 C-0.45249298 50.75535336 -0.41625364 42.9955604 -0.36968994 35.23583221 C-0.29250577 23.48953263 -0.13907998 11.74646307 0 0 Z " fill="#0B1F6F" transform="translate(440,295)"/>
<path d="M0 0 C6.21939432 5.64550171 10.58182791 13.89476138 11.3515625 22.265625 C11.90721703 34.38717514 10.18548761 43.3844069 2.0078125 52.83984375 C-4.77594615 59.19961748 -11.3543398 61.04413591 -20.4296875 60.96484375 C-21.23728516 60.98482422 -22.04488281 61.00480469 -22.87695312 61.02539062 C-29.78759487 61.01982202 -34.67955279 59.02969371 -40.1640625 54.88671875 C-48.1699678 46.72228067 -50.17682455 38.99239646 -50.2421875 27.83984375 C-50.2628125 26.97939453 -50.2834375 26.11894531 -50.3046875 25.23242188 C-50.35685037 16.5799052 -48.72406481 9.60385528 -42.6796875 3.15234375 C-41.57173828 1.93417969 -41.57173828 1.93417969 -40.44140625 0.69140625 C-29.88701179 -8.63416717 -11.0964372 -8.20266044 0 0 Z " fill="#1809A8" transform="translate(927.9921875,951.47265625)"/>
<path d="M0 0 C4.95 0 9.9 0 15 0 C16.1629788 4.07042581 17.20589119 7.72245836 17.9375 11.8125 C18.60534614 15.28845511 19.44462323 18.62173366 20.5 22 C22.75836629 29.30243313 24.33330117 36.33407306 24 44 C24.66 44 25.32 44 26 44 C26.07476562 43.37738281 26.14953125 42.75476563 26.2265625 42.11328125 C27.62699938 32.26903374 30.49219277 22.90623215 33.30126953 13.38867188 C34.60145619 8.94386884 35.79849891 4.47225404 37 0 C41.62 0 46.24 0 51 0 C51.43868408 1.58868896 51.43868408 1.58868896 51.88623047 3.20947266 C52.97676013 7.15717981 54.06937184 11.10430824 55.16259766 15.05126953 C55.63451595 16.75619161 56.10587742 18.46126792 56.57666016 20.16650391 C57.25535368 22.62443628 57.93608005 25.08179809 58.6171875 27.5390625 C58.82560272 28.29555084 59.03401794 29.05203918 59.24874878 29.83145142 C59.54883347 30.91189224 59.54883347 30.91189224 59.85498047 32.01416016 C60.02818817 32.64037262 60.20139587 33.26658508 60.37985229 33.91177368 C61.18665277 36.62851675 62.10380695 39.31142084 63 42 C66.63 28.14 70.26 14.28 74 0 C78.62 0 83.24 0 88 0 C87.45108953 5.49520369 86.39741998 10.44798351 84.625 15.6875 C83.05251783 20.51268137 81.63284806 25.28281588 80.5625 30.25 C79.30386665 36.00375243 77.69797241 41.61391225 76 47.25 C75.75064697 48.07790039 75.50129395 48.90580078 75.24438477 49.75878906 C73.58609154 55.20412582 71.81951128 60.60644871 70 66 C65.38 66 60.76 66 56 66 C55.45730469 64.09476563 54.91460937 62.18953125 54.35546875 60.2265625 C53.81930362 58.34650294 53.28313329 56.46644485 52.74682617 54.58642578 C52.19988442 52.66842927 51.653645 50.75023254 51.10742188 48.83203125 C50.75615234 47.60097656 50.40488281 46.36992188 50.04296875 45.1015625 C49.6979834 43.89145508 49.35299805 42.68134766 48.99755859 41.43457031 C47.89133304 37.62586225 46.72112499 33.84023742 45.5090332 30.06396484 C45 28 45 28 45 24 C44.34 24 43.68 24 43 24 C42.87689453 25.16096191 42.75378906 26.32192383 42.62695312 27.51806641 C42.10305444 31.69057794 41.13519505 35.6752893 39.96875 39.7109375 C39.77277222 40.40514801 39.57679443 41.09935852 39.37487793 41.81460571 C38.96407415 43.26568849 38.55051231 44.71599313 38.13427734 46.16552734 C37.49609872 48.3885899 36.86649913 50.61394804 36.23828125 52.83984375 C35.83642872 54.25534788 35.43410214 55.67071753 35.03125 57.0859375 C34.84268433 57.75047943 34.65411865 58.41502136 34.45983887 59.09970093 C33.11715358 63.76569285 33.11715358 63.76569285 32 66 C27.05 66 22.1 66 17 66 C16.70867187 64.79988281 16.41734375 63.59976563 16.1171875 62.36328125 C12.80239631 48.83646253 9.06621821 35.45997332 5.14892578 22.09667969 C4.57828477 20.14895191 4.0096431 18.20063712 3.44311523 16.25170898 C2.90960484 14.41650327 2.37156846 12.58260543 1.82836914 10.75024414 C1.58852295 9.92387451 1.34867676 9.09750488 1.1015625 8.24609375 C0.88838379 7.52091553 0.67520508 6.7957373 0.45556641 6.04858398 C0 4 0 4 0 0 Z " fill="#0648B3" transform="translate(305,946)"/>
<path d="M0 0 C4.95 0 9.9 0 15 0 C18.57345913 3.82188142 20.53723284 6.56038092 23 11 C24.45775136 13.15865664 25.93482515 15.30437458 27.4296875 17.4375 C28.91330582 19.62374741 30.39506664 21.81125645 31.875 24 C32.64045866 25.12901904 33.40608304 26.25792575 34.171875 27.38671875 C36.79158863 31.25102943 39.41032304 35.11548456 42 39 C42.33 26.13 42.66 13.26 43 0 C47.62 0 52.24 0 57 0 C57 21.78 57 43.56 57 66 C43 66 43 66 39.48632812 63.09765625 C38.21350098 61.17382812 38.21350098 61.17382812 37.03125 59.0625 C36.57697632 58.34900391 36.12270264 57.63550781 35.65466309 56.90039062 C34.22100552 54.62656091 32.86088816 52.31795911 31.5 50 C30.55937261 48.4749649 29.61409137 46.95278995 28.6640625 45.43359375 C27.31731774 43.27763157 25.97810359 41.12034248 24.67492676 38.93774414 C21.70579524 33.97374159 18.52074657 29.69432876 15 25 C14.67 38.53 14.34 52.06 14 66 C9.38 66 4.76 66 0 66 C0 44.22 0 22.44 0 0 Z " fill="#0548B5" transform="translate(178,946)"/>
<path d="M0 0 C5.61 0 11.22 0 17 0 C20.07010698 7.60549229 23.10720148 15.19074029 25.8671875 22.9140625 C27.65678568 27.78917479 29.55740746 32.62077151 31.45092773 37.45629883 C34.16233746 44.38511707 36.8205353 51.31945004 39.1875 58.375 C39.53167969 59.39335938 39.87585938 60.41171875 40.23046875 61.4609375 C41 64 41 64 41 66 C36.05 66 31.1 66 26 66 C22 54.375 22 54.375 22 51 C13.09 51 4.18 51 -5 51 C-5.99 54.3 -6.98 57.6 -8 61 C-8.99 63.475 -8.99 63.475 -10 66 C-14.62 66 -19.24 66 -24 66 C-22.72232904 59.5976881 -20.94211507 53.76663549 -18.515625 47.71484375 C-18.17754822 46.85548721 -17.83947144 45.99613068 -17.4911499 45.11073303 C-16.41700166 42.3838103 -15.33389679 39.66056063 -14.25 36.9375 C-12.83626518 33.36417892 -11.42600744 29.78948907 -10.015625 26.21484375 C-9.50328308 24.91938126 -9.50328308 24.91938126 -8.98059082 23.5977478 C-5.89004221 15.76674543 -2.93025773 7.89234512 0 0 Z " fill="#0649B4" transform="translate(448,946)"/>
<path d="M0 0 C4.62 0 9.24 0 14 0 C14 8.25 14 16.5 14 25 C22.58 25 31.16 25 40 25 C40 16.75 40 8.5 40 0 C44.62 0 49.24 0 54 0 C54 21.78 54 43.56 54 66 C49.38 66 44.76 66 40 66 C40 56.76 40 47.52 40 38 C31.42 38 22.84 38 14 38 C14 47.24 14 56.48 14 66 C9.38 66 4.76 66 0 66 C0 44.22 0 22.44 0 0 Z " fill="#2115AD" transform="translate(731,946)"/>
<path d="M0 0 C15.18 0 30.36 0 46 0 C46 3.96 46 7.92 46 12 C35.44 12 24.88 12 14 12 C14 16.62 14 21.24 14 26 C23.24 26 32.48 26 42 26 C42 29.96 42 33.92 42 38 C32.76 38 23.52 38 14 38 C14 43.28 14 48.56 14 54 C24.89 54 35.78 54 47 54 C47 57.96 47 61.92 47 66 C31.49 66 15.98 66 0 66 C0 44.22 0 22.44 0 0 Z " fill="#084AB4" transform="translate(252,946)"/>
<path d="M0 0 C14.52 0 29.04 0 44 0 C44 3.96 44 7.92 44 12 C33.77 12 23.54 12 13 12 C13 16.95 13 21.9 13 27 C21.91 27 30.82 27 40 27 C40 30.63 40 34.26 40 38 C31.09 38 22.18 38 13 38 C13 43.28 13 48.56 13 54 C23.56 54 34.12 54 45 54 C45 57.96 45 61.92 45 66 C30.15 66 15.3 66 0 66 C0 44.22 0 22.44 0 0 Z " fill="#1A0DA9" transform="translate(615,946)"/>
<path d="M0 0 C0.78181641 -0.01611328 1.56363281 -0.03222656 2.36914062 -0.04882812 C10.34084249 -0.05548786 15.7604178 2.76651503 22.1875 7.3125 C20.53582443 10.8911304 18.40463508 14.06070188 16.1875 17.3125 C12.69259579 16.66529552 10.17583118 15.19986706 7.1875 13.3125 C3.49003526 11.46376763 -0.77624356 11.84377345 -4.8125 12.3125 C-7.54887301 13.79542843 -7.54887301 13.79542843 -8.8125 16.3125 C-9.39600505 18.85540625 -9.39600505 18.85540625 -8.8125 21.3125 C-6.32211925 24.73786581 -3.16334751 25.24087966 0.8125 26.25 C16.46218809 30.51369211 16.46218809 30.51369211 22.1875 37.3125 C24.53143272 42.00036543 23.67259 48.22741865 23.1875 53.3125 C21.53400853 58.17658252 18.88926739 61.15133332 14.5 63.75 C12.8603125 64.5234375 12.8603125 64.5234375 11.1875 65.3125 C10.1975 65.8075 10.1975 65.8075 9.1875 66.3125 C-2.44019365 67.04523689 -11.94114145 66.94014964 -21.875 60.25 C-23.8125 58.3125 -23.8125 58.3125 -24.8125 55.3125 C-23.37890625 53.26953125 -23.37890625 53.26953125 -21.375 51.125 C-20.71628906 50.40957031 -20.05757812 49.69414063 -19.37890625 48.95703125 C-18.86199219 48.41433594 -18.34507813 47.87164063 -17.8125 47.3125 C-15.03233647 48.62297356 -12.66698018 50.13328251 -10.1875 51.9375 C-4.55615545 55.51629841 0.95299706 54.83002047 7.3125 53.8125 C7.93125 53.6475 8.55 53.4825 9.1875 53.3125 C9.32286774 51.87760191 9.41967143 50.43902893 9.5 49 C9.58701172 47.79923828 9.58701172 47.79923828 9.67578125 46.57421875 C9.3954256 44.13098843 9.3954256 44.13098843 7.1640625 42.671875 C2.95470522 40.74949136 -1.39673016 39.52758744 -5.84179688 38.29492188 C-13.12703824 36.16114028 -18.00072977 33.08898041 -21.8125 26.3125 C-23.6666987 21.52248669 -23.19266326 16.58716504 -21.75 11.75 C-16.6989811 2.78851486 -9.83708947 -0.03995568 0 0 Z " fill="#1909A9" transform="translate(1073.8125,945.6875)"/>
<path d="M0 0 C1.16015625 -0.02416992 1.16015625 -0.02416992 2.34375 -0.04882812 C10.17759092 -0.05540014 16.32468519 1.94268345 22.25 7.3125 C20.8802836 11.30750618 18.99277578 14.11259492 16.25 17.3125 C13.58188379 16.32148541 11.39778985 15.42551577 9.125 13.6875 C4.6133761 11.52976683 0.15758135 11.64157106 -4.75 12.3125 C-7.63715115 13.69395419 -7.63715115 13.69395419 -8.75 16.3125 C-9.3205376 19.39476354 -9.3205376 19.39476354 -7.75 22.3125 C-3.13964042 25.51874527 2.62115668 26.74134699 7.9375 28.3125 C14.27147656 30.21712232 18.03218332 31.97795613 22.625 36.8125 C25.03449758 42.00218709 25.10602222 46.68931954 24.25 52.3125 C21.89902348 58.26702249 17.85245074 62.45382467 12.16796875 65.38671875 C3.85392992 68.02450617 -7.83243285 67.88420183 -15.6875 64.0625 C-18.73489365 62.171198 -21.71815834 60.31188531 -23.75 57.3125 C-23.31672 54.14167815 -22.08707601 52.09526802 -20.1875 49.5625 C-19.73246094 48.94890625 -19.27742187 48.3353125 -18.80859375 47.703125 C-18.28458984 47.01476562 -18.28458984 47.01476562 -17.75 46.3125 C-14.03828073 47.54973976 -12.4946651 49.5678349 -9.75 52.3125 C-5.29141046 55.06854797 -0.83488431 54.72389841 4.25 54.3125 C7.21247229 53.601472 7.21247229 53.601472 9.25 52.3125 C10.68060128 49.45129744 10.63692581 47.47239415 10.25 44.3125 C5.82430184 40.95918255 0.56684257 39.77100874 -4.69140625 38.29492188 C-10.78898109 36.50049271 -16.02810425 34.38760513 -20.1875 29.375 C-22.83237239 24.08525522 -22.48103754 18.04265288 -21.75 12.3125 C-17.2284963 2.7671033 -9.81988246 -0.0401139 0 0 Z " fill="#1909A8" transform="translate(846.75,945.6875)"/>
<path d="M0 0 C3.63677289 2.85026193 5.65717763 5.28793913 7.11328125 9.65625 C5.68167857 10.66467453 4.24276672 11.66272891 2.80078125 12.65625 C2.00027344 13.213125 1.19976563 13.77 0.375 14.34375 C-1.88671875 15.65625 -1.88671875 15.65625 -4.88671875 15.65625 C-5.29921875 14.893125 -5.71171875 14.13 -6.13671875 13.34375 C-8.54259028 9.64901872 -10.71431215 8.95585206 -14.88671875 7.65625 C-19.12245668 6.98572778 -22.23710301 7.33144213 -26.13671875 9.28125 C-29.94283014 12.5683462 -32.29635928 15.8851716 -33.88671875 20.65625 C-34.53753725 30.24782095 -34.90014885 38.4847023 -28.6015625 46.23828125 C-25.79664147 49.07445488 -23.30566931 49.99884385 -19.44921875 50.15625 C-13.70285399 49.79831145 -9.3791308 48.30172995 -5.44921875 43.96875 C-4.93359375 43.205625 -4.41796875 42.4425 -3.88671875 41.65625 C0.30688574 42.32722672 3.51662477 44.5120894 7.11328125 46.65625 C6.5371269 50.33540705 5.09308433 52.10891835 2.48828125 54.71875 C1.83601562 55.39035156 1.18375 56.06195312 0.51171875 56.75390625 C-5.47081638 61.49901148 -10.92964059 62.15835712 -18.32421875 62.09375 C-19.13181641 62.11373047 -19.93941406 62.13371094 -20.77148438 62.15429688 C-28.12701733 62.14836977 -34.2709096 59.81690838 -39.57421875 54.59375 C-46.48497416 47.01727962 -48.32113355 39.56948111 -48.38671875 29.53125 C-48.3930835 28.69634033 -48.39944824 27.86143066 -48.40600586 27.0012207 C-48.21375972 17.57558754 -45.5359839 9.4774789 -38.88671875 2.65625 C-27.73332737 -6.25097228 -12.2781899 -7.8997762 0 0 Z " fill="#190AAA" transform="translate(714.88671875,950.34375)"/>
<path d="M0 0 C13.53 0 27.06 0 41 0 C41 3.96 41 7.92 41 12 C31.76 12 22.52 12 13 12 C13 17.28 13 22.56 13 28 C21.58 28 30.16 28 39 28 C39 31.96 39 35.92 39 40 C30.75 40 22.5 40 14 40 C14 48.58 14 57.16 14 66 C9.38 66 4.76 66 0 66 C0 44.22 0 22.44 0 0 Z " fill="#1D11AA" transform="translate(949,946)"/>
<path d="M0 0 C16.83 0 33.66 0 51 0 C51 3.96 51 7.92 51 12 C44.73 12 38.46 12 32 12 C32 29.82 32 47.64 32 66 C27.38 66 22.76 66 18 66 C18 48.18 18 30.36 18 12 C12.06 12 6.12 12 0 12 C0 8.04 0 4.08 0 0 Z " fill="#1F13AC" transform="translate(995,946)"/>
<path d="M0 0 C17.16 0 34.32 0 52 0 C52 3.96 52 7.92 52 12 C45.4 12 38.8 12 32 12 C32 29.82 32 47.64 32 66 C27.71 66 23.42 66 19 66 C19 48.18 19 30.36 19 12 C12.73 12 6.46 12 0 12 C0 8.04 0 4.08 0 0 Z " fill="#1B0EAA" transform="translate(555,946)"/>
<path d="M0 0 C4.90200636 2.24171448 7.78389725 4.91949003 10.87109375 9.31640625 C13.23439437 16.40630811 13.08600652 26.53963882 10.24609375 33.50390625 C7.82515088 38.02588168 4.47358781 41.01515922 -0.12890625 43.31640625 C-5.22957092 43.82480583 -9.72370598 43.88889525 -14.50390625 41.94140625 C-20.83189187 35.61342063 -22.57053312 29.31390279 -22.62890625 20.56640625 C-22.63519043 19.84557861 -22.64147461 19.12475098 -22.64794922 18.38208008 C-22.51365348 12.74100716 -21.27086072 8.59193471 -17.375 4.453125 C-16.77816406 3.97488281 -16.18132813 3.49664063 -15.56640625 3.00390625 C-14.96699219 2.51277344 -14.36757813 2.02164063 -13.75 1.515625 C-9.58332196 -1.56671273 -4.81425948 -1.54586314 0 0 Z " fill="#B7E8FA" transform="translate(913.12890625,957.68359375)"/>
<path d="M0 0 C4.62 0 9.24 0 14 0 C14 21.78 14 43.56 14 66 C9.38 66 4.76 66 0 66 C0 44.22 0 22.44 0 0 Z " fill="#0748B4" transform="translate(499,946)"/>
<path d="M0 0 C0.33 0 0.66 0 1 0 C2.19383323 35.64086684 2.12320748 71.27791359 2.07202661 106.93323207 C2.05845571 116.56347424 2.05330068 126.1937214 2.04751682 135.82397079 C2.03826373 150.88265937 2.01829978 165.94131339 2 181 C-24.07 181 -50.14 181 -77 181 C-77 153.94 -77 126.88 -77 99 C-76.67 99 -76.34 99 -76 99 C-75.67 125.4 -75.34 151.8 -75 179 C-50.58 179 -26.16 179 -1 179 C-0.67 119.93 -0.34 60.86 0 0 Z " fill="#0979B8" transform="translate(937,689)"/>
<path d="M0 0 C0.33 0 0.66 0 1 0 C1 48.51 1 97.02 1 147 C-1.50714557 144.49285443 -2.6564012 143.07303995 -4.19238281 140.05102539 C-4.79750702 138.86948631 -4.79750702 138.86948631 -5.41485596 137.66407776 C-5.83998474 136.81715866 -6.26511353 135.97023956 -6.703125 135.09765625 C-7.14517273 134.22354599 -7.58722046 133.34943573 -8.04266357 132.44883728 C-8.97366546 130.6020055 -9.90142674 128.75353704 -10.82617188 126.90356445 C-12.24613065 124.07022079 -13.68499884 121.24702712 -15.125 118.42382812 C-16.02721677 116.62819412 -16.92829742 114.83198872 -17.828125 113.03515625 C-18.26135071 112.19026138 -18.69457642 111.34536652 -19.14093018 110.47486877 C-19.53173767 109.6840239 -19.92254517 108.89317902 -20.32519531 108.07836914 C-20.67366516 107.3857045 -21.02213501 106.69303986 -21.38116455 105.97938538 C-22.12286363 103.6070127 -21.8029308 102.31727028 -21 100 C-20.30777344 101.40185547 -20.30777344 101.40185547 -19.6015625 102.83203125 C-15.6902048 110.72186823 -11.70330914 118.57006308 -7.625 126.375 C-7.19654785 127.20104736 -6.7680957 128.02709473 -6.32666016 128.87817383 C-5.72023682 130.03289185 -5.72023682 130.03289185 -5.1015625 131.2109375 C-4.74400879 131.89462402 -4.38645508 132.57831055 -4.01806641 133.28271484 C-2.99487964 135.17022676 -2.99487964 135.17022676 -1 137 C-1.00222061 136.4487999 -1.00444122 135.89759979 -1.00672913 135.32969666 C-1.1329894 102.17256705 -0.94311944 69.02911689 -0.5 35.875 C-0.48804218 34.9799815 -0.47608437 34.084963 -0.46376419 33.16282272 C-0.31549457 22.10845729 -0.16085968 11.0541893 0 0 Z " fill="#000325" transform="translate(518,412)"/>
<path d="M0 0 C3.31492767 3.72307192 4.61250273 7.98945249 6.1875 12.625 C6.46013672 13.40101563 6.73277344 14.17703125 7.01367188 14.9765625 C9 20.71152491 9 20.71152491 9 23 C3.39 23 -2.22 23 -8 23 C-5.99307639 14.97230556 -3.3411405 7.56708897 0 0 Z " fill="#ADE2F8" transform="translate(456,962)"/>
<path d="M0 0 C0.33 0 0.66 0 1 0 C1.30972755 5.26536838 0.71549749 7.59797155 -2 12 C-3.42789206 14.96745677 -4.7426524 17.98320548 -6.0625 21 C-6.41376953 21.7940625 -6.76503906 22.588125 -7.12695312 23.40625 C-8.41982542 26.33904159 -9.70940735 29.26533323 -10.88842773 32.24609375 C-12.39104893 35.96881878 -14.00928188 39.63772647 -15.625 43.3125 C-15.94984375 44.05306641 -16.2746875 44.79363281 -16.609375 45.55664062 C-17.40553151 47.37140913 -18.20266717 49.18574802 -19 51 C-17.97269775 50.96970703 -16.94539551 50.93941406 -15.88696289 50.90820312 C10.41487239 50.14518846 36.68776897 49.86586973 63 50 C63.66 48.35 64.32 46.7 65 45 C65.66 45.33 66.32 45.66 67 46 C66.01 47.98 65.02 49.96 64 52 C35.62 52 7.24 52 -22 52 C-20.35 48.04 -18.7 44.08 -17 40 C-16.52433594 38.83984375 -16.04867188 37.6796875 -15.55859375 36.484375 C-13.8310537 32.27086269 -12.10829224 28.10127671 -10 24.0625 C-7.6702781 19.55396937 -5.95902114 14.8217845 -4.171875 10.078125 C-2.87476696 6.67105454 -1.47310781 3.33387558 0 0 Z " fill="#0F75B3" transform="translate(503,705)"/>
<path d="M0 0 C5.34843182 6.41811819 7.88903405 14.26336646 10.71142578 21.99511719 C12.48246662 26.78576587 14.53673761 31.30509538 16.91015625 35.83203125 C18.26506385 38.52727755 19.30239362 41.27682826 20.30859375 44.1171875 C21.02152233 46.05860884 21.83929351 47.92672 22.6875 49.8125 C24 53 24 53 24 56 C25.00160156 55.83757813 26.00320313 55.67515625 27.03515625 55.5078125 C38.89363157 53.988993 51.11662922 55.11506813 63 56 C63 56.66 63 57.32 63 58 C49.8 58 36.6 58 23 58 C21.989375 55.421875 20.97875 52.84375 19.9375 50.1875 C17.1217756 43.06710466 14.16533614 36.01287695 11.12890625 28.984375 C10.79068344 28.20069046 10.45246063 27.41700592 10.10398865 26.60957336 C8.38716577 22.63550136 6.66271484 18.66492259 4.92944336 14.69799805 C4.28614445 13.21409545 3.64299032 11.73013008 3 10.24609375 C2.69723648 9.55936584 2.39447296 8.87263794 2.08253479 8.1651001 C0.83129083 5.26591824 0 3.19412624 0 0 Z " fill="#091539" transform="translate(767,699)"/>
<path d="M0 0 C0.66 0 1.32 0 2 0 C3.10688344 2.49882727 4.21055111 4.99899729 5.3125 7.5 C5.7755957 8.54414063 5.7755957 8.54414063 6.24804688 9.609375 C6.55419922 10.30546875 6.86035156 11.0015625 7.17578125 11.71875 C7.59210815 12.66137695 7.59210815 12.66137695 8.0168457 13.62304688 C8.84925451 15.63554555 9.62111992 17.67292256 10.37915039 19.71459961 C12.03238093 24.1547045 13.8811117 28.49824258 15.7578125 32.84765625 C16.47305808 34.52131271 17.18788951 36.1951462 17.90234375 37.86914062 C19.01537851 40.47318947 20.13085777 43.07606717 21.25341797 45.67602539 C22.34591022 48.20918511 23.42768152 50.74670565 24.5078125 53.28515625 C24.84322052 54.05513443 25.17862854 54.82511261 25.52420044 55.61842346 C27.43047283 60.12634136 28.53497466 64.12206951 29 69 C23.75520009 63.75520009 21.62913323 54.68965522 18.9375 47.875 C16.6968556 42.21577244 14.4088843 36.59031484 12 31 C10.42336136 27.23495686 8.86640344 23.46197358 7.3125 19.6875 C6.89677734 18.68654297 6.48105469 17.68558594 6.05273438 16.65429688 C5.66021484 15.69974609 5.26769531 14.74519531 4.86328125 13.76171875 C4.50532471 12.89506592 4.14736816 12.02841309 3.77856445 11.13549805 C3 9 3 9 3 7 C0.64270057 9.19138979 -1.02057098 11.43931973 -2.6875 14.1875 C-3.12449219 14.90292969 -3.56148437 15.61835938 -4.01171875 16.35546875 C-4.33785156 16.89816406 -4.66398438 17.44085937 -5 18 C-6.39214652 13.82356045 -4.70664266 11.16562207 -3.0625 7.3125 C-2.77181641 6.61060547 -2.48113281 5.90871094 -2.18164062 5.18554688 C-1.46289687 3.45349225 -0.73254669 1.72626219 0 0 Z " fill="#1B7DB6" transform="translate(678,495)"/>
<path d="M0 0 C27.06 0 54.12 0 82 0 C82 0.33 82 0.66 82 1 C73.07696063 1.85480427 64.23581285 2.10990158 55.27851295 2.01403427 C53.088398 1.99161283 50.89837408 1.97780052 48.70817566 1.96633911 C42.49274515 1.93308013 36.27747063 1.89056107 30.06225586 1.82861328 C26.23475718 1.79106479 22.40740325 1.76798539 18.57974815 1.75430679 C17.12720321 1.74625093 15.67467807 1.73263966 14.22223854 1.71337509 C12.2053387 1.68702747 10.18820738 1.68065557 8.17114258 1.67529297 C7.02454666 1.66561493 5.87795074 1.65593689 4.6966095 1.64596558 C3.80672836 1.76279694 2.91684723 1.8796283 2 2 C1.01 3.485 1.01 3.485 0 5 C-0.66 5 -1.32 5 -2 5 C-1.34 3.35 -0.68 1.7 0 0 Z " fill="#30CDEC" transform="translate(597,493)"/>
<path d="M0 0 C2.35748769 2.14553162 3.70079128 4.09701192 5.015625 6.9921875 C5.37640137 7.77400391 5.73717773 8.55582031 6.10888672 9.36132812 C6.4854541 10.19083984 6.86202148 11.02035156 7.25 11.875 C12.6002042 25.15372555 12.6002042 25.15372555 20.65234375 36.55078125 C22.49213951 38.52922828 22.49481747 40.0284811 22.6875 42.6875 C22.78611328 43.89986328 22.78611328 43.89986328 22.88671875 45.13671875 C22.92410156 45.75160156 22.96148438 46.36648438 23 47 C20.67990371 44.8683374 19.23848158 42.85908702 17.82348633 40.05102539 C17.42329788 39.26333267 17.02310944 38.47563995 16.61079407 37.66407776 C16.18880234 36.81715866 15.76681061 35.97023956 15.33203125 35.09765625 C14.89235519 34.22354599 14.45267914 33.34943573 13.99967957 32.44883728 C13.07301585 30.60192705 12.14944775 28.75346085 11.22875977 26.90356445 C9.81708491 24.07169748 8.39064765 21.24761424 6.96289062 18.42382812 C6.06419905 16.62805685 5.16638278 14.8318472 4.26953125 13.03515625 C3.84146683 12.19026138 3.4134024 11.34536652 2.97236633 10.47486877 C2.38626839 9.28860146 2.38626839 9.28860146 1.78833008 8.07836914 C1.44208084 7.3857045 1.0958316 6.69303986 0.73908997 5.97938538 C0 4 0 4 0 0 Z " fill="#080F25" transform="translate(496,512)"/>
<path d="M0 0 C8.06198486 -0.10749313 15.97021562 0.28510664 24 1 C24 1.33 24 1.66 24 2 C16.74 2 9.48 2 2 2 C2 5.96 2 9.92 2 14 C12.23 14 22.46 14 33 14 C33 14.33 33 14.66 33 15 C22.11 15 11.22 15 0 15 C0 10.05 0 5.1 0 0 Z " fill="#C1F1FC" transform="translate(266,984)"/>
<path d="M0 0 C0.33 0 0.66 0 1 0 C1.30972755 5.26536838 0.71549749 7.59797155 -2 12 C-3.42789206 14.96745677 -4.7426524 17.98320548 -6.0625 21 C-6.41376953 21.7940625 -6.76503906 22.588125 -7.12695312 23.40625 C-8.8199987 27.24680707 -10.44458561 31.10153584 -12 35 C-12.86487623 36.94204026 -13.74002785 38.87953452 -14.625 40.8125 C-15.07101562 41.78832031 -15.51703125 42.76414062 -15.9765625 43.76953125 C-16.31429688 44.50558594 -16.65203125 45.24164062 -17 46 C-17.66 46 -18.32 46 -19 46 C-16.56620912 38.4753438 -13.66463476 31.07893485 -10 24.0625 C-7.6702781 19.55396937 -5.95902114 14.8217845 -4.171875 10.078125 C-2.87476696 6.67105454 -1.47310781 3.33387558 0 0 Z " fill="#01639D" transform="translate(503,705)"/>
<path d="M0 0 C5.34843182 6.41811819 7.88903405 14.26336646 10.71142578 21.99511719 C12.48246662 26.78576587 14.53673761 31.30509538 16.91015625 35.83203125 C18.26325954 38.52368834 19.29831544 41.27091645 20.30859375 44.10546875 C21.41120506 47.12674833 22.71115561 50.05406997 24 53 C23.34 53.66 22.68 54.32 22 55 C19.66992802 49.5233515 17.34044431 44.04645328 15.01147461 38.56933594 C14.22126652 36.71119646 13.43090558 34.85312198 12.64038086 32.99511719 C10.41264276 27.75901677 8.18928524 22.52109254 5.9697876 17.28149414 C5.09715835 15.2285719 4.21702818 13.17910602 3.33349609 11.13085938 C2.87668457 10.06158203 2.41987305 8.99230469 1.94921875 7.890625 C1.56467529 6.99891602 1.18013184 6.10720703 0.78393555 5.18847656 C0 3 0 3 0 0 Z " fill="#011648" transform="translate(767,699)"/>
<path d="M0 0 C0.66 0 1.32 0 2 0 C3.85638226 3.80619129 5.7076563 7.61481041 7.55419922 11.42578125 C8.18332711 12.72236283 8.81385541 14.01826587 9.44580078 15.31347656 C10.35296172 17.17337011 11.25508803 19.03563141 12.15625 20.8984375 C12.70087891 22.01911621 13.24550781 23.13979492 13.80664062 24.29443359 C15 27 15 27 15 29 C14.34 29 13.68 29 13 29 C11.14091431 25.35599427 9.28974009 21.70809105 7.44580078 18.05639648 C6.81742993 16.81473958 6.18690908 15.5741683 5.55419922 14.3347168 C4.64506386 12.55284003 3.74429009 10.76670486 2.84375 8.98046875 C2.29912109 7.90692139 1.75449219 6.83337402 1.19335938 5.72729492 C0 3 0 3 0 0 Z " fill="#15213D" transform="translate(510,612)"/>
<path d="M0 0 C4.46570128 3.63089676 6.12797416 8.2542554 8.25 13.4375 C8.61351562 14.28376953 8.97703125 15.13003906 9.3515625 16.00195312 C11.11499698 20.23485882 12.21059239 23.35521097 12 28 C9.79342598 25.79342598 9.16558753 24.20533597 8.0625 21.3125 C6.90538799 18.32115117 5.72642304 15.37624454 4.4375 12.4375 C2.73106519 8.35689501 1.34625344 4.21062245 0 0 Z " fill="#04B2DD" transform="translate(754,675)"/>
<path d="M0 0 C2.45898655 -0.08076963 4.91533742 -0.14037143 7.375 -0.1875 C8.07367188 -0.21263672 8.77234375 -0.23777344 9.4921875 -0.26367188 C11.5234375 -0.29296875 11.5234375 -0.29296875 15 0 C15.66 0.99 16.32 1.98 17 3 C11.72 3 6.44 3 1 3 C0.67 3.99 0.34 4.98 0 6 C0 4.02 0 2.04 0 0 Z " fill="#1351BA" transform="translate(178,946)"/>
<path d="M0 0 C0.66 0 1.32 0 2 0 C2.6875 3.3125 2.6875 3.3125 3 7 C1.6875 8.46875 1.6875 8.46875 0 10 C-0.9314842 11.37229925 -1.82734303 12.76940337 -2.6875 14.1875 C-3.12449219 14.90292969 -3.56148437 15.61835938 -4.01171875 16.35546875 C-4.33785156 16.89816406 -4.66398438 17.44085937 -5 18 C-6.39214652 13.82356045 -4.70664266 11.16562207 -3.0625 7.3125 C-2.77181641 6.61060547 -2.48113281 5.90871094 -2.18164062 5.18554688 C-1.46289687 3.45349225 -0.73254669 1.72626219 0 0 Z " fill="#035897" transform="translate(678,495)"/>
<path d="M0 0 C1.32 0 2.64 0 4 0 C4 0.66 4 1.32 4 2 C4.66 2 5.32 2 6 2 C5.125 9.625 5.125 9.625 4 13 C3.34 13 2.68 13 2 13 C1.66127487 11.58461283 1.32925376 10.16762037 1 8.75 C0.814375 7.96109375 0.62875 7.1721875 0.4375 6.359375 C0 4 0 4 0 0 Z " fill="#98D1F1" transform="translate(327,977)"/>
<path d="M0 0 C1.33804687 0.04060547 1.33804687 0.04060547 2.703125 0.08203125 C3.37859375 0.11683594 4.0540625 0.15164063 4.75 0.1875 C4.75 0.8475 4.75 1.5075 4.75 2.1875 C1.12 2.5175 -2.51 2.8475 -6.25 3.1875 C-6.394375 4.115625 -6.53875 5.04375 -6.6875 6 C-7.25 9.1875 -7.25 9.1875 -8.25 12.1875 C-8.91 11.5275 -9.57 10.8675 -10.25 10.1875 C-10.02332082 3.95382244 -10.02332082 3.95382244 -7.5234375 1.4765625 C-4.78717917 -0.07492418 -3.12034935 -0.12317168 0 0 Z " fill="#B1D1F2" transform="translate(1074.25,956.8125)"/>
<path d="M0 0 C0.99 0 1.98 0 3 0 C2.835 0.94875 2.67 1.8975 2.5 2.875 C1.9473365 5.80168901 1.9473365 5.80168901 2 8 C0.69428332 11.21407182 0.02071949 11.98618701 -3 14 C-2.28547412 9.23649415 -1.20465156 4.65798604 0 0 Z " fill="#1250B5" transform="translate(336,968)"/>
<path d="M0 0 C0.66 0 1.32 0 2 0 C4.03612253 7.04811643 1.28711604 11.71012052 -2 18 C-2.33 18 -2.66 18 -3 18 C-3.125 13.25 -3.125 13.25 -2 11 C-1.34 11 -0.68 11 0 11 C0.33 8.36 0.66 5.72 1 3 C0.34 2.67 -0.32 2.34 -1 2 C-0.67 1.34 -0.34 0.68 0 0 Z " fill="#081332" transform="translate(525,643)"/>
<path d="M0 0 C4.25983217 3.49914785 6.15672955 7.92120163 8 13 C8 13.66 8 14.32 8 15 C7.34 15 6.68 15 6 15 C4.99267601 13.06629769 3.99436712 11.12789694 3 9.1875 C2.443125 8.10855469 1.88625 7.02960938 1.3125 5.91796875 C0 3 0 3 0 0 Z " fill="#0B152F" transform="translate(488,497)"/>
<path d="M0 0 C0.33 0 0.66 0 1 0 C0.54775239 5.91492272 -0.1582605 11.35199888 -2 17 C-3.1171875 15.421875 -3.1171875 15.421875 -4 13 C-3.3203125 9.765625 -3.3203125 9.765625 -2.125 6.25 C-1.73570312 5.07953125 -1.34640625 3.9090625 -0.9453125 2.703125 C-0.63335937 1.81109375 -0.32140625 0.9190625 0 0 Z " fill="#1250B3" transform="translate(342,986)"/>
<path d="M0 0 C3.72007056 4.11864955 8 10.20736961 8 16 C7.34 16 6.68 16 6 16 C4.99303432 13.89915791 3.9946411 11.79420511 3 9.6875 C2.443125 8.51574219 1.88625 7.34398437 1.3125 6.13671875 C0 3 0 3 0 0 Z " fill="#0F204B" transform="translate(473,467)"/>
<path d="M0 0 C2.90039305 2.46700099 3.97011276 4.9468802 5.25 8.5 C5.78367187 9.93859375 5.78367187 9.93859375 6.328125 11.40625 C7 14 7 14 6 17 C0.44419134 5.47835991 0.44419134 5.47835991 0 0 Z " fill="#1789BF" transform="translate(707,564)"/>
<path d="M0 0 C5.28 0 10.56 0 16 0 C15.67 0.66 15.34 1.32 15 2 C13.62714844 1.94779297 13.62714844 1.94779297 12.2265625 1.89453125 C11.03804687 1.86746094 9.84953125 1.84039062 8.625 1.8125 C7.44164062 1.77769531 6.25828125 1.74289062 5.0390625 1.70703125 C4.03617188 1.80371094 3.03328125 1.90039062 2 2 C1.01 3.485 1.01 3.485 0 5 C-0.66 5 -1.32 5 -2 5 C-1.34 3.35 -0.68 1.7 0 0 Z " fill="#27C6EB" transform="translate(597,493)"/>
<path d="M0 0 C1.95273962 2.92910944 2.75396363 5.08132291 3.6875 8.4375 C3.95949219 9.38496094 4.23148437 10.33242188 4.51171875 11.30859375 C4.99803744 13.98918237 4.89369149 15.46287583 4 18 C1.90649311 14.5980513 1.82057837 11.94727588 2 8 C1.34 8 0.68 8 0 8 C0 5.36 0 2.72 0 0 Z " fill="#8EC6EB" transform="translate(354,988)"/>
<path d="M0 0 C1.9375 0.9375 1.9375 0.9375 4 3 C4.66174825 5.9858081 4.87205948 8.94861869 5 12 C2.2289312 9.65408148 1.47940716 7.85223799 0.8125 4.3125 C0.65394531 3.50425781 0.49539063 2.69601562 0.33203125 1.86328125 C0.22246094 1.24839844 0.11289062 0.63351562 0 0 Z " fill="#080D18" transform="translate(514,547)"/>
<path d="M0 0 C1.79093191 -0.08086147 3.58289628 -0.13912702 5.375 -0.1875 C6.87160156 -0.23970703 6.87160156 -0.23970703 8.3984375 -0.29296875 C9.25695312 -0.19628906 10.11546875 -0.09960938 11 0 C11.66 0.99 12.32 1.98 13 3 C8.71 2.67 4.42 2.34 0 2 C0 1.34 0 0.68 0 0 Z " fill="#B1D6F3" transform="translate(842,957)"/>
<path d="M0 0 C0.66 0 1.32 0 2 0 C2.67154933 1.28913487 3.33708859 2.58140204 4 3.875 C4.37125 4.59429688 4.7425 5.31359375 5.125 6.0546875 C6 8 6 8 6 10 C5.01 10 4.02 10 3 10 C0 3.375 0 3.375 0 0 Z " fill="#17243F" transform="translate(493,578)"/>
<path d="M0 0 C0.33 0 0.66 0 1 0 C1.24959784 2.0809844 1.47394907 4.16500812 1.6875 6.25 C1.81511719 7.41015625 1.94273438 8.5703125 2.07421875 9.765625 C1.99254989 13.32466794 1.42472438 14.48177725 -1 17 C-1.33 16.01 -1.66 15.02 -2 14 C-1.67 13.34 -1.34 12.68 -1 12 C-0.77141886 9.9625237 -0.58975722 7.91959697 -0.4375 5.875 C-0.35371094 4.77929688 -0.26992187 3.68359375 -0.18359375 2.5546875 C-0.12300781 1.71164062 -0.06242187 0.86859375 0 0 Z " fill="#8FABE8" transform="translate(1097,987)"/>
<path d="M0 0 C0.66 0.33 1.32 0.66 2 1 C2 1.66 2 2.32 2 3 C-0.8125 5.6875 -0.8125 5.6875 -4 8 C-4.99 7.67 -5.98 7.34 -7 7 C-4.69 4.69 -2.38 2.38 0 0 Z " fill="#1D17A2" transform="translate(890,950)"/>
<path d="M0 0 C3.32637022 2.69277589 4.58473125 6.03724749 6 10 C5.67 10.99 5.34 11.98 5 13 C4.15930585 11.39967863 3.32768495 9.79458829 2.5 8.1875 C1.80390625 6.84751953 1.80390625 6.84751953 1.09375 5.48046875 C0 3 0 3 0 0 Z " fill="#0F192E" transform="translate(509,539)"/>
<path d="M0 0 C0.66 0.33 1.32 0.66 2 1 C0.95125002 3.62187494 0.35068687 4.79371361 -2.125 6.25 C-2.74375 6.4975 -3.3625 6.745 -4 7 C-3.43628586 3.73045798 -2.50037734 2.17424117 0 0 Z " fill="#120799" transform="translate(717,1000)"/>
<path d="M0 0 C2.64 0.33 5.28 0.66 8 1 C7.01 1.495 7.01 1.495 6 2 C6 2.66 6 3.32 6 4 C3.69 3.34 1.38 2.68 -1 2 C-0.67 1.34 -0.34 0.68 0 0 Z " fill="#2318B8" transform="translate(852,946)"/>
<path d="M0 0 C0.99 0 1.98 0 3 0 C6 5.625 6 5.625 6 9 C5.34 9 4.68 9 4 9 C0 2.25 0 2.25 0 0 Z " fill="#0E2780" transform="translate(340,449)"/>
<path d="M0 0 C0.66 0.99 1.32 1.98 2 3 C0.68 5.64 -0.64 8.28 -2 11 C-2.66 11 -3.32 11 -4 11 C-3.52269162 9.5410574 -3.04308958 8.08286504 -2.5625 6.625 C-2.29566406 5.81289063 -2.02882813 5.00078125 -1.75390625 4.1640625 C-1 2 -1 2 0 0 Z " fill="#1AA9DC" transform="translate(560,577)"/>
<path d="M0 0 C3 1 3 1 4.75 3.8125 C6 7 6 7 5 11 C3.35 7.37 1.7 3.74 0 0 Z " fill="#0E277B" transform="translate(353,474)"/>
<path d="M0 0 C0.66 0.33 1.32 0.66 2 1 C1.67 2.32 1.34 3.64 1 5 C-0.32 5 -1.64 5 -3 5 C-1.125 1.125 -1.125 1.125 0 0 Z " fill="#150A9B" transform="translate(930,998)"/>
<path d="M0 0 C0.66 0 1.32 0 2 0 C2.66 2.97 3.32 5.94 4 9 C2 7.875 2 7.875 0 6 C-0.25 2.8125 -0.25 2.8125 0 0 Z " fill="#8CC4EB" transform="translate(348,970)"/>
<path d="M0 0 C7.42857143 -0.28571429 7.42857143 -0.28571429 11 2 C11 2.66 11 3.32 11 4 C7.37 3.01 3.74 2.02 0 1 C0 0.67 0 0.34 0 0 Z " fill="#9EC0EE" transform="translate(852,973)"/>
<path d="M0 0 C2 2 2 2 2 5 C2.639375 5.103125 3.27875 5.20625 3.9375 5.3125 C4.618125 5.539375 5.29875 5.76625 6 6 C6.33 6.99 6.66 7.98 7 9 C3.34683329 7.75023244 2.21934164 7.32901247 0 4 C0 2.68 0 1.36 0 0 Z " fill="#ADCBF1" transform="translate(837,962)"/>
<path d="M0 0 C0.66 1.32 1.32 2.64 2 4 C0.02 6.97 0.02 6.97 -2 10 C-3.39195915 5.82412255 -1.82323219 3.86525224 0 0 Z " fill="#0168A9" transform="translate(675,503)"/>
<path d="M0 0 C4 4.5 4 4.5 4 9 C4.66 9.33 5.32 9.66 6 10 C5.01 10 4.02 10 3 10 C1.68 7.03 0.36 4.06 -1 1 C-0.67 0.67 -0.34 0.34 0 0 Z " fill="#0E267D" transform="translate(368,500)"/>
<path d="M0 0 C2.32472205 2.85306797 3.7508258 5.54074837 5 9 C4.01 9.495 4.01 9.495 3 10 C-0.22265625 4.82421875 -0.22265625 4.82421875 -1 3 C-0.67 2.01 -0.34 1.02 0 0 Z " fill="#0D257E" transform="translate(363,490)"/>
<path d="M0 0 C0.99 0.33 1.98 0.66 3 1 C2.67 1.66 2.34 2.32 2 3 C1.34 3 0.68 3 0 3 C-0.66 4.32 -1.32 5.64 -2 7 C-2.66 7 -3.32 7 -4 7 C-2.79618552 4.50638429 -1.54571278 2.31856917 0 0 Z " fill="#2C2CBC" transform="translate(829,992)"/>
<path d="M0 0 C0.99 0.33 1.98 0.66 3 1 C2.34 3.31 1.68 5.62 1 8 C0.34 7.34 -0.32 6.68 -1 6 C-0.625 2.875 -0.625 2.875 0 0 Z " fill="#9FD3F0" transform="translate(367,981)"/>
<path d="M0 0 C0.66 0 1.32 0 2 0 C1.5205537 4.21912747 0.83374881 6.79663178 -2 10 C-2 7.69 -2 5.38 -2 3 C-1.34 3 -0.68 3 0 3 C0 2.01 0 1.02 0 0 Z " fill="#13049E" transform="translate(827,958)"/>
<path d="M0 0 C-0.99 0 -1.98 0 -3 0 C-3.33 0.99 -3.66 1.98 -4 3 C-5.98 3 -7.96 3 -10 3 C-4.375 -1.3125 -4.375 -1.3125 0 0 Z " fill="#2A2BB8" transform="translate(1069,947)"/>
<path d="M0 0 C0.66 0 1.32 0 2 0 C3.06775224 1.96466413 4.06553465 3.96855359 5 6 C4.67 6.66 4.34 7.32 4 8 C1.10067643 5.60490662 0.49831724 3.68754757 0 0 Z " fill="#23334D" transform="translate(510,612)"/>
<path d="M0 0 C2.7972908 2.06756277 3.02692273 3.14440371 3.6875 6.6875 C3.790625 7.780625 3.89375 8.87375 4 10 C0 4 0 4 0 0 Z " fill="#05AAD7" transform="translate(767,704)"/>
<path d="M0 0 C0.66 0.99 1.32 1.98 2 3 C0 6 0 6 -2 9 C-3 6 -3 6 -1.5625 2.8125 C-1.046875 1.884375 -0.53125 0.95625 0 0 Z " fill="#017EB4" transform="translate(522,663)"/>
<path d="M0 0 C0.33 0 0.66 0 1 0 C1.25 5.625 1.25 5.625 -1 9 C-1.66 9 -2.32 9 -3 9 C-2.01 6.03 -1.02 3.06 0 0 Z " fill="#1FB2E1" transform="translate(572,549)"/>
<path d="M0 0 C2.15377564 2.62198774 3.40072174 4.64404172 4 8 C1 7 1 7 -0.25 4.5625 C-1 2 -1 2 0 0 Z " fill="#AED8ED" transform="translate(342,454)"/>
</svg>
